<?xml version="1.0" standalone="no"?>
<!DOCTYPE svg PUBLIC "-//W3C//DTD SVG 20010904//EN"
 "http://www.w3.org/TR/2001/REC-SVG-20010904/DTD/svg10.dtd">
<svg version="1.0" xmlns="http://www.w3.org/2000/svg"
 width="454.000000pt" height="549.000000pt" viewBox="0 0 454.000000 549.000000"
 preserveAspectRatio="xMidYMid meet">

<g transform="translate(0.000000,549.000000) scale(0.100000,-0.100000)"
fill="#000000" stroke="none">
<path d="M316 5038 c4 -7 15 -24 24 -38 10 -14 36 -55 59 -92 78 -129 125
-201 139 -214 7 -8 11 -14 8 -14 -3 0 43 -75 101 -167 58 -93 139 -222 180
-288 41 -66 192 -308 336 -537 672 -1072 717 -1144 717 -1157 0 -4 9 -17 20
-29 46 -49 45 -24 50 -1112 l5 -1035 343 -3 342 -2 0 1030 c0 878 2 1036 14
1065 17 39 156 267 311 510 57 88 167 264 245 390 196 316 269 433 348 557 63
97 85 136 83 143 -2 4 3 11 9 15 12 8 106 150 184 280 25 41 70 113 101 160
30 47 62 99 71 115 9 17 42 68 72 115 98 150 172 271 172 281 0 5 5 9 10 9 6
0 10 7 10 15 0 13 -47 15 -387 13 l-387 -3 -82 -130 c-46 -71 -92 -146 -102
-166 -11 -19 -41 -69 -68 -110 -26 -41 -57 -90 -67 -109 -11 -19 -30 -49 -43
-67 -13 -17 -24 -34 -24 -37 0 -7 -80 -136 -137 -223 -20 -30 -31 -58 -27 -64
4 -7 3 -9 -2 -6 -6 3 -23 -15 -38 -41 -16 -26 -61 -99 -101 -162 -75 -120
-180 -289 -248 -400 -22 -36 -56 -90 -76 -120 -19 -30 -42 -66 -49 -80 -7 -14
-19 -32 -26 -40 -7 -8 -30 -44 -51 -80 -35 -61 -50 -79 -67 -80 -3 0 -59 84
-124 188 -257 410 -331 528 -350 560 -16 28 -200 323 -259 417 -11 18 -34 56
-52 86 -17 30 -36 59 -42 66 -6 7 -11 15 -11 18 0 4 -13 25 -28 48 -15 23 -33
51 -39 62 -13 22 -212 341 -264 422 l-34 53 -388 0 c-308 0 -387 -3 -381 -12z"/>
</g>
</svg>
